# xmcd CD database file generated by OrangeCD 6.4
#
# Track frame offsets:
#	150
#	20100
#	40244
#	57285
#	71656
#	86483
#	102589
#	118824
#	140519
#	156663
#	174243
#	188739
#	201230
#	220627
#	235898
#	252332
#	268383
#
# Disc length: 3838 seconds
#
# Revision: 0
# Processed by: cddbd v1.5.2PL0 Copyright (c) Steve Scherf et al.
# Submitted via: OrangeCD 6.4
#
DISCID=050efc11
DTITLE=Various Artist - Country Love Songs
DYEAR=2010
DGENRE=Country
TTITLE0=LeAnn Rimes - How Do I Live
TTITLE1=Lonestar - Amazed
TTITLE2=Brad Paisley - We Danced
TTITLE3=Alan Jackson - I'd Love You All Over Again
TTITLE4=Martina McBride - Born to Give My Love To You
TTITLE5=Gretchen Wilson - Holdin' You
TTITLE6=Brooks and Dunn - Still In Love With You
TTITLE7=Sara Evans - I Could Not Ask For More
TTITLE8=Alabama - Forever's As Far As I'll Go
TTITLE9=Billy Ray Cyrus - You Won't Be Lonely Now
TTITLE10=Collin Raye - In This Life
TTITLE11=BlackHawk - Always Have, Always Will
TTITLE12=Restless Heart - I'll Still Be Loving You
TTITLE13=Mary Chapin Carpenter - Passionate Kisses
TTITLE14=Travis Tritt - Love Of A Woman
TTITLE15=Joe Diffie - So Help Me Girl
TTITLE16=Tracy Byrd - Keeper of The Stars
EXTD=Mix: Your Style
EXTT0=
EXTT1=
EXTT2=
EXTT3=
EXTT4=
EXTT5=
EXTT6=
EXTT7=
EXTT8=
EXTT9=
EXTT10=
EXTT11=
EXTT12=
EXTT13=
EXTT14=
EXTT15=
EXTT16=
PLAYORDER=
